PathFileType	4	(X/Y/Z)	Patient4_TMGait_0pt4_02_right_24.trc.trc
DataRate	CameraRate	NumFrames	NumMarkers	Units	OrigDataRate	OrigDataStartFrame	OrigNumFrames
71.794871794872	71.794871794872	4	33	mm	71.794871794872	36	       141
Frame#	Time	Sacral			L.Shoulder			Chest			R.Shoulder			Neck			R.ASIS			L.ASIS			R.Thigh.Superior			R.Thigh.Lateral			R.Thigh.Inferior			R.Patella			L.Thigh.Superior			L.Thigh.Lateral			L.Thigh.Inferior			L.Patella			L.Shank.Superior			L.Shank.Lateral			L.Shank.Inferior			R.Shank.Superior			R.Shank.Lateral			R.Shank.Inferior			R.Heel			R.Midfoot.Superior			R.Midfoot.Lateral			R.Toe			L.Heel			L.Midfoot.Lateral			L.Midfoot.Superior			L.Toe			L.Elbow			L.Wrist			R.Elbow			R.Wrist			
		X1	Y1	Z1	X2	Y2	Z2	X3	Y3	Z3	X4	Y4	Z4	X5	Y5	Z5	X6	Y6	Z6	X7	Y7	Z7	X8	Y8	Z8	X9	Y9	Z9	X10	Y10	Z10	X11	Y11	Z11	X12	Y12	Z12	X13	Y13	Z13	X14	Y14	Z14	X15	Y15	Z15	X16	Y16	Z16	X17	Y17	Z17	X18	Y18	Z18	X19	Y19	Z19	X20	Y20	Z20	X21	Y21	Z21	X22	Y22	Z22	X23	Y23	Z23	X24	Y24	Z24	X25	Y25	Z25	X26	Y26	Z26	X27	Y27	Z27	X28	Y28	Z28	X29	Y29	Z29	X30	Y30	Z30	X31	Y31	Z31	X32	Y32	Z32	X33	Y33	Z33	

36	31.987500000000	932.239032209524	999.145411155667	491.633686304273	1116.099760806747	1435.945489799174	325.576204834944	1213.354164446073	1362.399991950942	488.022283550548	1123.369293311642	1429.757918605250	660.906970486710	1096.567093028796	1492.910136878106	483.767642181317	1162.161711574104	940.716811767755	613.377988327490	1148.783169667642	961.584047456899	338.219673552163	1219.348153684675	746.865931165489	582.071201711668	1149.303707666241	633.326967237783	644.583629187875	1230.162368830027	587.077988459968	563.209588530289	1238.641649558680	498.829820815065	570.744110680792	1191.926436186876	742.750043321102	357.435995304166	1105.133885617498	629.374098680591	286.871511880823	1191.979069662753	544.953847966475	341.876439789498	1186.146635770825	462.047159959850	337.258852971619	1124.011374016101	401.547462075541	331.208094308678	988.611306839114	344.081031278673	283.606475023503	989.772890022560	214.937844713083	339.333533712073	1212.760316874739	408.471817934631	580.967985657079	1146.812738181833	303.809806005489	647.663293827834	1190.121863473198	209.037308037486	584.597967928880	1060.981778695867	42.645544624168	562.188618482863	1232.197395497185	98.265021430904	592.392169715190	1146.880530627567	37.400183567310	634.172935488305	1354.277993622328	47.237394116861	615.380083639294	811.823932547889	121.295425737062	381.575848347761	872.558608072541	89.613080013054	297.893580304727	973.537805640233	117.162623072305	316.485353273424	1069.275536918348	34.279429440278	281.125378820780	1113.051910982740	1091.687084885258	187.878644727075	1317.230715580588	926.093570049294	185.273128066878	1067.141770454626	1084.726455178946	776.424742493818	1161.355490761843	840.862790846862	770.567434800596	
37	32.001428571429	931.962759668439	999.571413293652	495.392560420221	1115.008797071324	1436.481401973493	328.811547533627	1213.572801428353	1362.493658160032	490.337079773720	1125.200838498763	1429.675653517669	664.022550795089	1097.012268126572	1493.240968215727	487.286322193990	1162.514612336795	941.101439801997	615.607883255577	1147.994777265749	962.040446299751	340.610234972378	1218.055805632202	746.322420936487	584.949955206729	1146.768884986130	633.174120592298	646.857216363426	1227.425326208676	586.530227664924	565.526184747561	1235.092631994107	498.283016301304	572.590888308240	1196.399840659940	745.996377677032	359.967179349510	1114.936842837184	630.472291377428	287.912162120425	1204.388645590808	548.216402944255	343.004501049203	1199.946254948797	464.076154405938	337.501833555025	1135.917913814277	403.372577547449	331.562927839314	998.392524446046	350.601801059308	284.215562554125	995.458706593708	221.370243546839	339.604402581804	1208.842627176218	408.070423767870	582.485544871907	1142.399905253198	303.487548116349	648.672279733103	1185.266715813816	208.768536145156	585.252612202320	1055.435263311849	42.632402419289	562.276507022428	1226.696634977485	98.166715926462	592.670779896500	1141.325476986203	37.361279896541	634.327227313908	1348.752801353414	47.087334324033	615.618205775794	813.751164851340	136.130409161134	381.897252151639	872.893314715332	100.966425895041	298.265652874767	975.520578501352	122.801863023225	316.769122813156	1065.972979758937	33.847844225768	281.681549010465	1107.237843084688	1091.259413341663	193.021485857602	1303.156963337324	915.381378929036	187.863999732582	1075.718451917168	1084.008130402993	781.471125639405	1179.932063482775	844.416251458869	773.719913145256	
38	32.015357142857	931.507273324980	999.958468537126	499.050918839982	1113.727842244909	1436.897520570246	331.776098527287	1213.662733039223	1362.504353132540	492.341461504159	1127.025767088638	1429.583574035581	666.869776245053	1097.399173079228	1493.520765479884	490.522235954552	1162.661066517687	941.429399023278	617.708157096145	1146.940947595238	962.329013334267	342.923626354731	1216.535545673652	745.753433830752	587.655051754390	1144.118085396364	633.013573999435	649.053956692023	1224.475009302107	585.972472896685	567.699625493994	1231.310770009528	497.746203400335	574.346009711395	1200.601360516927	749.485806289607	362.302179236173	1124.361523059928	632.026150864582	288.806055807847	1216.316911288976	552.069422261729	343.944558848511	1213.454142948139	466.836561175382	337.716141558373	1147.859755581523	405.742866108740	331.844671422034	1008.501222878628	357.187357141503	284.771481617980	1001.896875215055	227.922459567608	339.918766109928	1204.765304178816	407.659474331296	583.917806573517	1137.874089598075	303.145551740195	649.648827653593	1180.287939866056	208.475315649155	585.854706852976	1049.785993941346	42.617699763830	562.354715796154	1221.100349650637	98.024899263633	592.919682537899	1135.664944121619	37.306286139478	634.469596199593	1343.131643521735	46.859257858368	615.836071840411	816.957230143586	150.376951749224	382.247498794939	874.633775710949	112.161515830955	298.660930341733	978.638589618211	128.701782424523	317.197475015337	1064.195035947042	33.738648287509	282.290547761378	1101.317717101664	1090.804985983821	197.884120134880	1288.165521148497	904.923142592593	190.417499805025	1084.508335711787	1083.493535144619	786.377141078354	1198.815022385027	848.753612599606	776.477543611196	
39	32.029285714286	930.910137276069	1000.328983968270	502.581368908213	1112.302601660306	1437.217623366064	334.456062226509	1213.632128044822	1362.472684384548	494.047677231100	1128.807088509432	1429.526747185438	669.435697063810	1097.732671042684	1493.775569915096	493.447573696124	1162.628020961056	941.711442971182	619.702213524156	1145.647479852756	962.495327887142	345.167077095827	1214.841302654296	745.188693152789	590.121097286762	1141.428345160949	632.868444349638	651.143114189029	1221.366873389284	585.418185950928	569.683631401198	1227.351152510967	497.231961660718	575.967538515226	1204.424338474914	753.185648460773	364.410416975024	1133.119088926678	634.036864280953	289.583284721986	1227.487509787361	556.472006415588	344.644709195882	1226.385461709221	470.307446453020	337.835949955970	1159.599164601025	408.640240762098	332.010530554063	1018.724451811764	363.603071942387	285.255971427697	1009.104196261047	234.296888131448	340.213097123960	1200.580249768763	407.253747542877	585.236391586135	1133.296410375011	302.804240191150	650.589863147815	1175.235040384663	208.176066245231	586.398365739413	1044.080609577827	42.604402744203	562.433827808172	1215.448080766979	97.868583226934	593.142273309317	1129.946180225811	37.246167375392	634.604852617806	1337.455877648390	46.592861734103	616.031644199402	821.568997989425	163.250619744210	382.572720398105	878.013495751534	122.544761820403	299.023626346097	983.098996363345	134.540559103275	317.674567567592	1064.459996393983	34.024045539851	282.862050727676	1095.302523343698	1090.350145941186	202.464041955722	1272.279876699553	894.849506277576	192.930633792957	1093.483997523519	1083.215270879067	791.054764393875	1217.892679101822	853.920966939366	778.787395355333	
